<?xml version="1.0" standalone="no"?>
<!DOCTYPE svg PUBLIC "-//W3C//DTD SVG 20010904//EN"
 "http://www.w3.org/TR/2001/REC-SVG-20010904/DTD/svg10.dtd">
<svg version="1.0" xmlns="http://www.w3.org/2000/svg"
  width="160.000000pt" height="160.000000pt" viewBox="1 0 150.000000 150.000000"
 preserveAspectRatio="xMidYMid meet">
<g transform="translate(0.110000,160.000000) scale(.1011,-0.110000)"
fill="transparent" stroke="#4beb5e" stroke-width="10">
<path d="M0 750 l0 -750 750 0 750 0 0 750 0 750 -750 0 -750 0 0 -750z m839
587 c18 -9 37 -14 42 -11 5 3 8 0 7 -8 -2 -7 5 -12 15 -12 10 1 16 -1 13 -4
-9 -9 15 -32 27 -25 5 3 7 1 4 -4 -4 -6 4 -30 17 -54 14 -24 28 -65 31 -91 l7
-48 119 0 119 0 0 -95 0 -95 -40 0 -40 0 0 -335 0 -335 -427 2 -428 3 -3 332
-2 333 -40 0 -40 0 0 95 0 95 118 0 118 0 12 58 c18 87 67 153 144 192 55 28
71 31 128 28 36 -2 80 -11 99 -21z"/>
<path d="M655 1309 c-16 -4 -47 -22 -68 -40 -130 -107 -103 -310 52 -385 23
-12 58 -18 97 -18 202 1 299 241 155 385 -63 64 -148 84 -236 58z m185 -79
c31 -31 34 -65 11 -120 -11 -27 -21 -66 -21 -87 0 -54 -20 -88 -50 -88 -19 0
-27 7 -36 33 l-10 33 -15 -33 c-15 -36 -48 -48 -67 -25 -7 8 -16 46 -21 84 -5
39 -17 82 -26 97 -12 18 -15 35 -11 54 4 15 8 34 9 43 1 9 7 15 13 12 7 -2 15
0 18 6 4 5 47 10 97 10 76 0 94 -4 109 -19z"/>
<path d="M652 1205 c-27 -20 -28 -35 -2 -77 12 -19 20 -52 21 -78 1 -56 17
-103 18 -53 1 54 18 85 43 81 19 -2 25 -13 33 -53 12 -56 25 -42 25 26 0 23 9
56 22 78 21 37 21 40 5 65 -18 27 -50 35 -63 15 -6 -10 -33 -9 -64 5 -8 3 -25
-1 -38 -9z"/>
<path d="M260 985 l0 -55 128 0 128 0 -25 55 -26 55 -102 0 -103 0 0 -55z"/>
<path d="M990 1023 c0 -10 -9 -33 -20 -51 -11 -18 -20 -35 -20 -37 0 -3 56 -5
125 -5 l125 0 0 55 0 55 -105 0 c-93 0 -105 -2 -105 -17z"/>
<path d="M340 575 l0 -315 171 0 171 0 -4 38 c-2 33 0 37 20 37 l23 1 2 179 2
180 145 0 145 0 3 -183 c2 -177 3 -183 22 -177 18 6 20 2 20 -34 0 -39 2 -41
30 -41 l30 0 0 315 0 316 -112 -3 c-87 -2 -112 -6 -110 -16 1 -8 -2 -11 -7 -7
-6 3 -27 -3 -48 -13 -21 -11 -52 -22 -70 -25 -49 -10 -142 10 -183 38 -33 23
-45 25 -143 25 l-107 0 0 -315z m328 43 l3 -78 -136 0 -135 0 0 80 0 81 133
-3 132 -3 3 -77z"/>
<path d="M440 620 c0 -39 1 -40 35 -40 34 0 35 1 35 40 0 39 -1 40 -35 40 -34
0 -35 -1 -35 -40z"/>
<path d="M550 620 l0 -40 40 0 40 0 0 40 0 40 -40 0 -40 0 0 -40z"/>
<path d="M760 495 l0 -166 108 3 107 3 3 163 3 162 -110 0 -111 0 0 -165z"/>
<path d="M720 280 c0 -19 8 -20 150 -20 141 0 150 1 150 19 0 18 -9 20 -150
20 -142 0 -150 -1 -150 -19z"/>
</g>
</svg>
