<?xml version="1.0" standalone="no"?>
<!DOCTYPE svg PUBLIC "-//W3C//DTD SVG 20010904//EN"
 "http://www.w3.org/TR/2001/REC-SVG-20010904/DTD/svg10.dtd">
<svg version="1.0" xmlns="http://www.w3.org/2000/svg"
 width="160.000000pt" height="160.000000pt" viewBox="1 0 150.000000 150.000000"
 preserveAspectRatio="xMidYMid meet">

<rect width="100%" height="100%" fill="transparent" />

<g transform="translate(0.110000,160.000000) scale(.1011,-0.110000)"
fill="none" stroke="#4beb5e" stroke-width="10">
<path d="M0 750 l0 -750 750 0 750 0 0 750 0 750 -750 0 -750 0 0 -750z m533
576 c31 -28 42 -65 32 -104 -3 -15 -7 -35 -8 -44 -1 -9 -3 -15 -5 -13 -3 2
-17 -2 -33 -10 -97 -51 -198 49 -145 144 30 54 114 68 159 27z m305 -124 c10
10 18 6 38 -14 15 -14 23 -31 20 -37 -4 -6 -45 -41 -92 -77 l-85 -67 -56 12
c-31 6 -59 11 -63 11 -4 0 -1 -37 7 -82 7 -46 11 -88 9 -93 -2 -6 -53 -30
-112 -54 -60 -25 -117 -51 -126 -59 -31 -26 -15 -112 21 -112 6 0 11 -3 11 -7
0 -8 -102 -53 -118 -53 -4 0 -5 22 -4 50 4 47 3 50 -21 50 -43 0 -50 21 -43
118 17 210 75 332 158 332 25 0 29 -5 40 -47 7 -27 14 -40 16 -30 2 10 13 17
27 17 14 0 25 -7 28 -17 2 -11 9 2 17 31 l13 48 41 -5 c23 -3 65 -9 94 -13 43
-6 56 -4 72 11 11 10 17 22 13 28 -3 5 -2 7 4 4 6 -4 18 0 29 7 14 11 16 17 6
28 -18 23 6 43 28 23 13 -11 19 -12 28 -3z m488 -60 c55 -44 59 -109 10 -158
-72 -72 -176 -24 -176 81 0 76 107 125 166 77z m-839 -26 c0 -1 3 -10 5 -21 2
-16 -3 -20 -27 -20 -24 0 -29 4 -27 19 2 10 -2 23 -10 27 -8 5 1 6 22 3 19 -4
36 -7 37 -8z m403 -85 c0 -4 11 -6 24 -4 30 6 46 -16 17 -24 -11 -3 -18 -9
-15 -14 3 -5 10 -6 16 -3 7 4 8 2 4 -5 -13 -21 35 -81 64 -80 26 1 82 16 66
18 -5 1 4 12 20 26 35 30 93 34 117 8 38 -43 28 -100 -30 -173 -15 -19 27 14
95 73 92 80 130 107 150 107 35 0 52 -17 52 -51 0 -23 -17 -42 -93 -106 -221
-185 -276 -236 -270 -246 3 -6 1 -7 -6 -3 -7 5 -28 -7 -52 -29 -35 -32 -46
-36 -78 -32 -25 3 -66 -7 -133 -31 -98 -34 -98 -34 -98 -68 l0 -34 110 0 110
0 0 -45 0 -45 -285 0 -285 0 0 45 0 45 100 0 c55 0 100 3 100 6 0 3 -26 38
-58 78 l-58 72 -100 -43 c-116 -50 -149 -54 -166 -18 -23 50 -7 62 238 166
126 54 235 98 242 99 13 0 65 -21 207 -83 l81 -34 54 48 55 48 -60 -30 c-69
-34 -64 -35 -223 23 l-113 41 -131 -53 c-123 -50 -132 -53 -157 -39 -31 17
-40 68 -17 92 8 8 80 41 160 72 l144 58 102 -37 c93 -35 140 -41 125 -16 -3 6
1 7 9 4 9 -3 -11 34 -44 82 -63 94 -71 117 -42 133 21 13 52 14 52 2z m-430
-600 l0 -60 -37 -3 c-38 -3 -38 -3 -41 -50 -2 -27 -7 -48 -12 -48 -19 0 -30
41 -30 108 l0 69 48 21 c70 31 72 30 72 -37z m65 9 c55 -68 55 -72 -1 -68
l-49 3 -3 58 c-2 31 1 57 5 57 4 -1 26 -23 48 -50z"/>
<path d="M456 1193 c22 -16 26 -16 47 0 15 10 11 12 -24 13 -36 0 -39 -2 -23
-13z"/>
<path d="M322 960 c0 -14 2 -19 5 -12 2 6 2 18 0 25 -3 6 -5 1 -5 -13z"/>
<path d="M312 895 c0 -16 2 -22 5 -12 2 9 2 23 0 30 -3 6 -5 -1 -5 -18z"/>
<path d="M302 815 c0 -16 2 -22 5 -12 2 9 2 23 0 30 -3 6 -5 -1 -5 -18z"/>
<path d="M292 730 c0 -19 2 -27 5 -17 2 9 2 25 0 35 -3 9 -5 1 -5 -18z"/>
<path d="M1214 1016 c11 -9 29 -16 40 -16 17 1 18 2 6 9 -8 5 -26 12 -40 15
-24 7 -24 6 -6 -8z"/>
<path d="M1140 916 c0 -2 8 -10 18 -17 15 -13 16 -12 3 4 -13 16 -21 21 -21
13z"/>
<path d="M1099 713 c-13 -16 -12 -17 4 -4 16 13 21 21 13 21 -2 0 -10 -8 -17
-17z"/>
<path d="M674 666 c-9 -24 4 -48 23 -44 12 2 18 12 18 28 0 29 -32 41 -41 16z
m31 -26 c-5 -8 -11 -8 -17 -2 -6 6 -7 16 -3 22 5 8 11 8 17 2 6 -6 7 -16 3
-22z"/>
<path d="M962 548 c2 -15 10 -23 23 -23 30 0 27 39 -3 43 -20 3 -23 0 -20 -20z
m38 -3 c0 -8 -7 -15 -15 -15 -8 0 -15 7 -15 15 0 8 7 15 15 15 8 0 15 -7 15
-15z"/>
<path d="M634 396 c-15 -40 21 -80 54 -60 37 24 21 74 -25 74 -13 0 -26 -6
-29 -14z m54 -25 c-5 -24 -38 -27 -38 -3 0 10 3 21 6 25 11 11 35 -5 32 -22z"/>
</g>
</svg>
