<?xml version="1.0" standalone="no"?>
<!DOCTYPE svg PUBLIC "-//W3C//DTD SVG 20010904//EN"
 "http://www.w3.org/TR/2001/REC-SVG-20010904/DTD/svg10.dtd">
<svg version="1.0" xmlns="http://www.w3.org/2000/svg"
 width="160.000000pt" height="160.000000pt" viewBox="1 0 150.000000 150.000000"
 preserveAspectRatio="xMidYMid meet">

<g transform="translate(0.110000,160.000000) scale(.1011,-0.110000)"
fill="transparent" stroke="#4beb5e" stroke-width="10">
<path d="M0 750 l0 -750 750 0 750 0 0 750 0 750 -750 0 -750 0 0 -750z m1008
552 c2 -42 0 -52 -12 -52 -13 0 -16 12 -16 56 0 73 24 70 28 -4z m-148 -21
c18 -38 14 -66 -6 -53 -15 10 -37 79 -29 92 9 15 14 9 35 -39z m290 34 c0 -19
-22 -68 -34 -77 -21 -14 -24 4 -8 47 15 43 42 62 42 30z m123 -62 c3 -5 -8
-24 -24 -43 -20 -24 -32 -31 -40 -23 -7 7 -2 19 16 42 27 31 40 38 48 24z
m-156 -65 c71 -26 155 -104 190 -176 25 -51 28 -68 28 -157 0 -125 -17 -166
-109 -264 -69 -74 -87 -111 -65 -137 8 -10 14 -47 16 -94 1 -66 -1 -81 -18
-96 -10 -9 -19 -29 -19 -43 0 -15 -7 -37 -16 -49 -14 -21 -22 -22 -139 -22
-99 0 -127 3 -139 16 -14 13 -21 42 -17 67 0 4 -92 7 -206 7 l-208 0 -127 127
-128 128 0 320 c0 184 4 326 10 335 8 13 59 16 327 20 234 4 326 9 348 18 79
35 178 35 272 0z m230 -24 c5 -14 -64 -50 -74 -40 -9 9 47 57 61 53 6 -2 11
-8 13 -13z"/>
<path d="M897 1160 c-95 -24 -193 -120 -218 -213 -33 -123 -3 -226 94 -330 30
-32 63 -76 72 -98 12 -25 25 -39 37 -39 16 0 18 10 18 116 l0 117 -36 39 c-33
37 -35 41 -19 57 15 15 18 13 45 -19 l29 -35 28 28 c36 34 46 34 72 0 l21 -28
23 28 c12 15 30 27 40 27 27 0 20 -33 -13 -65 -30 -29 -30 -29 -30 -146 0 -84
3 -118 13 -121 19 -8 37 2 37 20 0 25 32 73 78 117 39 36 57 65 30 49 -7 -4
-8 -3 -4 5 4 6 12 9 17 5 5 -3 21 21 36 52 70 154 7 331 -144 406 -72 35 -155
45 -226 28z m-24 -555 c-3 -9 -8 -14 -10 -11 -3 3 -2 9 2 15 9 16 15 13 8 -4z"/>
<path d="M200 825 l0 -295 120 0 120 0 0 -120 0 -120 175 0 c147 0 174 2 169
14 -3 8 -1 24 5 35 8 14 8 27 -1 46 -10 22 -8 30 10 55 21 27 21 32 8 63 -7
18 -41 61 -74 95 -78 80 -105 145 -106 257 -1 91 25 162 84 228 l32 37 -271 0
-271 0 0 -295z m357 156 c3 -37 -19 -42 -168 -39 -136 3 -144 4 -144 23 0 19
8 20 155 25 85 3 155 7 155 8 1 1 1 -7 2 -17z m-2 -186 c0 -19 -8 -20 -149
-23 -150 -3 -174 2 -163 33 6 13 27 15 159 13 145 -3 153 -4 153 -23z m-1
-164 c4 -5 3 -16 0 -25 -5 -14 -28 -16 -154 -16 -149 0 -168 4 -156 35 4 12
33 15 155 15 82 0 152 -4 155 -9z m111 -186 c0 -18 -8 -20 -79 -23 -81 -3
-103 5 -92 33 5 13 20 15 88 13 75 -3 83 -5 83 -23z"/>
<path d="M962 738 c-8 -8 -12 -53 -12 -135 l0 -123 33 0 34 0 2 116 c2 98 -1
119 -15 135 -20 22 -26 23 -42 7z"/>
<path d="M270 447 c19 -18 54 -52 78 -75 l42 -43 0 76 0 75 -77 0 -78 -1 35
-32z"/>
<path d="M833 415 c-11 -31 12 -36 153 -33 131 3 139 4 139 23 0 19 -8 20
-143 23 -123 2 -143 0 -149 -13z"/>
<path d="M834 331 c-2 -2 -4 -13 -4 -23 0 -17 11 -18 150 -18 143 0 150 1 150
20 0 16 -7 20 -37 20 -21 0 -87 2 -146 3 -60 1 -111 0 -113 -2z"/>
<path d="M870 220 c0 -18 7 -20 85 -21 47 -1 95 -2 108 -2 16 -1 23 5 25 21 3
22 1 22 -107 22 -104 0 -111 -1 -111 -20z"/>
</g>
</svg>
