<?xml version="1.0" standalone="no"?>
<!DOCTYPE svg PUBLIC "-//W3C//DTD SVG 20010904//EN"
 "http://www.w3.org/TR/2001/REC-SVG-20010904/DTD/svg10.dtd">
<svg version="1.0" xmlns="http://www.w3.org/2000/svg"
 width="160.000000pt" height="160.000000pt" viewBox="1 0 150.000000 150.000000"
 preserveAspectRatio="xMidYMid meet">

<g transform="translate(0.110000,160.000000) scale(.1011,-0.110000)"
fill="transparent" stroke="#4beb5e" stroke-width="15">
<path d="M0 750 l0 -750 750 0 750 0 0 750 0 750 -750 0 -750 0 0 -750z m873
620 c30 -11 72 -37 93 -58 21 -20 43 -36 49 -34 5 2 7 1 3 -3 -4 -4 2 -23 12
-43 33 -60 44 -138 30 -202 -14 -64 -43 -136 -81 -201 l-27 -47 66 -17 c390
-97 405 -382 27 -493 -266 -79 -614 -32 -764 103 -53 48 -71 83 -71 135 0 58
21 101 71 144 58 50 118 79 216 106 l81 23 -29 47 c-87 141 -107 287 -56 392
68 138 234 202 380 148z"/>
<path d="M700 1331 c-45 -14 -91 -42 -85 -51 3 -6 0 -8 -7 -5 -7 2 -27 -15
-44 -38 -41 -55 -59 -136 -44 -203 16 -75 102 -239 175 -338 l67 -88 29 33
c51 59 141 200 177 278 28 60 36 92 40 153 4 69 2 84 -22 132 -49 101 -180
159 -286 127z m131 -128 c16 -10 38 -36 49 -58 27 -56 18 -106 -28 -151 -110
-107 -287 47 -195 170 42 56 117 73 174 39z"/>
<path d="M545 720 c-64 -13 -156 -50 -203 -82 -219 -150 25 -351 423 -350 314
0 552 128 499 266 -3 9 -10 13 -15 10 -5 -3 -6 1 -3 9 15 40 -165 134 -291
151 -37 5 -41 4 -62 -29 l-23 -36 28 -10 c68 -25 84 -33 102 -57 46 -58 12
-128 -78 -163 -45 -17 -77 -22 -157 -22 -148 0 -227 35 -258 114 -9 23 -14 39
-10 35 3 -3 15 8 25 25 16 27 54 49 121 73 17 5 16 9 -9 41 -14 19 -31 35 -38
34 -6 -1 -29 -5 -51 -9z"/>
<path d="M641 598 c-91 -26 -106 -70 -38 -109 38 -22 53 -24 162 -24 99 0 126
3 155 19 53 29 63 52 34 81 -9 9 -23 14 -31 11 -8 -3 -11 -2 -8 4 3 5 -14 14
-37 21 -42 11 -43 11 -74 -25 -17 -20 -36 -36 -42 -36 -6 0 -23 16 -38 35 -28
37 -31 38 -83 23z"/>
</g>
</svg>
