<?xml version="1.0" standalone="no"?>
<!DOCTYPE svg PUBLIC "-//W3C//DTD SVG 20010904//EN"
 "http://www.w3.org/TR/2001/REC-SVG-20010904/DTD/svg10.dtd">
<svg version="1.0" xmlns="http://www.w3.org/2000/svg"
 width="160.000000pt" height="160.000000pt" viewBox="1 0 150.000000 150.000000"
 preserveAspectRatio="xMidYMid meet">

<g transform="translate(0.110000,160.000000) scale(.1011,-0.110000)"
fill="transparent" stroke="#4beb5e" stroke-width="10">
<path d="M0 750 l0 -750 750 0 750 0 0 750 0 750 -750 0 -750 0 0 -750z m1026
626 c75 -20 149 -63 197 -115 23 -25 45 -45 48 -44 4 1 6 -3 6 -10 -1 -7 9
-34 22 -60 82 -175 21 -394 -142 -505 -74 -51 -132 -67 -239 -67 l-98 0 0
-158 c0 -154 -1 -158 -25 -182 l-24 -25 -229 0 c-217 0 -231 1 -256 21 l-26
20 0 364 c0 200 3 371 6 380 12 31 59 45 158 45 l95 0 15 53 c18 63 60 130
112 181 22 21 38 43 36 48 -1 5 2 7 7 4 5 -4 26 4 46 16 76 44 198 59 291 34z"/>
<path d="M786 1316 c-153 -64 -250 -241 -217 -397 6 -33 19 -76 28 -95 14 -28
15 -46 7 -104 l-10 -70 26 0 c14 1 45 5 70 10 35 6 52 4 80 -10 57 -29 151
-43 216 -31 65 12 150 53 146 70 -1 7 3 9 9 6 6 -4 26 8 45 26 33 32 46 58 22
43 -7 -4 -8 -3 -4 5 4 6 12 9 17 5 5 -3 22 21 37 53 23 50 27 70 27 153 0 82
-4 103 -26 150 -33 69 -96 143 -116 136 -8 -3 -11 -1 -8 4 3 5 -18 22 -47 37
-44 22 -68 27 -148 30 -83 3 -102 1 -154 -21z m105 -193 c16 -10 29 -22 29
-27 0 -5 12 1 26 15 22 20 36 24 90 24 55 0 66 -3 79 -23 9 -12 20 -20 23 -18
4 2 9 -24 10 -59 3 -49 -2 -73 -18 -106 -23 -44 -98 -124 -163 -173 l-37 -29
-39 26 c-59 39 -147 134 -170 183 -35 75 -26 136 27 181 33 28 101 31 143 6z"/>
<path d="M782 1092 c-7 -5 -10 -16 -7 -24 4 -9 2 -19 -4 -23 -7 -4 -8 0 -4 11
4 11 2 15 -4 11 -19 -12 -23 -54 -9 -93 8 -22 19 -38 25 -37 5 2 8 -3 5 -10
-2 -7 23 -39 55 -71 54 -54 62 -58 78 -45 16 13 17 12 5 -3 -24 -30 5 -28 44
3 83 65 143 152 144 209 0 36 -28 73 -51 67 -11 -3 -17 -1 -13 4 3 5 -2 9 -11
9 -25 0 -73 -28 -85 -50 -13 -24 -35 -26 -44 -5 -7 20 -66 55 -91 55 -11 0
-26 -4 -33 -8z"/>
<path d="M416 992 c-96 -3 -116 -11 -116 -47 0 -22 3 -23 110 -24 71 -1 110 2
110 9 0 5 -3 9 -7 9 -22 -4 -33 3 -33 20 0 13 8 21 23 23 48 7 -3 13 -87 10z"/>
<path d="M300 625 l0 -255 240 0 240 0 0 113 c0 111 -1 114 -25 125 -18 8 -46
8 -110 0 -55 -8 -89 -8 -95 -2 -6 6 -5 38 5 89 13 76 13 82 -7 133 l-22 52
-113 0 -113 0 0 -255z"/>
<path d="M300 295 c0 -14 8 -29 19 -35 26 -13 416 -13 442 0 11 6 19 21 19 35
l0 25 -240 0 -240 0 0 -25z m260 -10 c0 -19 -20 -29 -32 -17 -15 15 -2 43 17
36 8 -3 15 -12 15 -19z"/>
</g>
</svg>
